<svg width="18" height="18" viewBox="0 0 18 18" fill="none" xmlns="http://www.w3.org/2000/svg">
<path d="M9.00033 0.666626C4.39783 0.666626 0.666992 4.39746 0.666992 8.99996C0.666992 13.6025 4.39783 17.3333 9.00033 17.3333C13.6028 17.3333 17.3337 13.6025 17.3337 8.99996C17.3337 4.39746 13.6028 0.666626 9.00033 0.666626ZM9.83366 14H8.16699V12.3333H9.83366V14ZM9.83366 10.55V11.5H8.16699V9.83329C8.16699 9.61228 8.25479 9.40032 8.41107 9.24404C8.56735 9.08776 8.77931 8.99996 9.00033 8.99996C9.91949 8.99996 10.667 8.25246 10.667 7.33329C10.667 6.41413 9.91949 5.66663 9.00033 5.66663C8.08116 5.66663 7.33366 6.41413 7.33366 7.33329H5.66699C5.66699 5.49163 7.15866 3.99996 9.00033 3.99996C10.842 3.99996 12.3337 5.49163 12.3337 7.33329C12.3323 8.07068 12.086 8.78672 11.6335 9.36894C11.181 9.95116 10.5479 10.3666 9.83366 10.55Z" fill="#333333"/>
</svg>
