<svg width="36" height="36" viewBox="0 0 36 36" fill="none" xmlns="http://www.w3.org/2000/svg">
<path d="M12.5765 3.7188L11.2877 4.1076C10.1382 4.45386 9.11158 5.12135 8.32869 6.03147C7.54581 6.9416 7.03926 8.05646 6.8687 9.2448C6.3341 12.9672 7.5293 17.3196 10.4111 22.311C13.2857 27.2898 16.4501 30.4974 19.9331 31.9014C21.0522 32.3524 22.2773 32.4726 23.4627 32.2477C24.6481 32.0227 25.744 31.4621 26.6201 30.6324L27.5975 29.7072C28.2307 29.1074 28.6247 28.2981 28.7061 27.4297C28.7876 26.5613 28.551 25.6929 28.0403 24.9858L25.5995 21.6018C25.2695 21.1449 24.8048 20.8028 24.2706 20.6233C23.7364 20.4439 23.1594 20.436 22.6205 20.601L18.9287 21.7296L18.8333 21.7476C18.4265 21.807 17.4887 20.9268 16.3187 18.9C15.0947 16.7796 14.8391 15.5394 15.1775 15.219L17.0567 13.4676C17.7429 12.8274 18.2116 11.9885 18.3969 11.0685C18.5822 10.1485 18.4748 9.19352 18.0899 8.3376L16.9019 5.6898C16.5435 4.89223 15.9071 4.25236 15.1115 3.88966C14.3159 3.52696 13.4154 3.46623 12.5783 3.7188H12.5765ZM15.2585 6.4278L16.4483 9.0756C16.6797 9.58902 16.7444 10.162 16.6333 10.7141C16.5222 11.2662 16.241 11.7696 15.8291 12.1536L13.9463 13.9068C12.7403 15.0462 13.1399 16.9956 14.7581 19.8C16.2827 22.4388 17.6723 23.742 19.1645 23.5152L19.3877 23.4684L23.1461 22.3218C23.3258 22.2666 23.5182 22.2691 23.6964 22.3288C23.8746 22.3885 24.0296 22.5025 24.1397 22.6548L26.5805 26.0388C26.8361 26.3924 26.9545 26.8268 26.9138 27.2612C26.8731 27.6956 26.676 28.1004 26.3591 28.4004L25.3817 29.3256C24.7559 29.9178 23.9733 30.318 23.1268 30.4785C22.2802 30.639 21.4054 30.5531 20.6063 30.231C17.5499 28.9998 14.6609 26.0712 11.9699 21.411C9.2735 16.74 8.1827 12.7674 8.6507 9.5004C8.77246 8.65135 9.13433 7.85479 9.69368 7.20455C10.253 6.5543 10.9866 6.07746 11.8079 5.8302L13.0985 5.4414C13.5169 5.31567 13.9668 5.34641 14.3642 5.52791C14.7617 5.7094 15.0795 6.02924 15.2585 6.4278Z" fill="white"/>
</svg>
