<svg width="61" height="60" viewBox="0 0 61 60" fill="none" xmlns="http://www.w3.org/2000/svg">
<path d="M55.1094 10.3113H41.5088C43.292 7.75381 43.0454 4.20081 40.7654 1.92092C38.2067 -0.637866 34.0434 -0.637866 31.4847 1.92092C31.1975 2.20815 30.8545 2.62405 30.5001 3.32752C30.1456 2.62405 29.8027 2.20815 29.5155 1.92092C26.9568 -0.637866 22.7935 -0.637866 20.2348 1.92092C17.955 4.20081 17.7084 7.7537 19.4914 10.3113H5.89062C2.91828 10.3113 0.5 12.7296 0.5 15.7019V19.9207C0.5 22.3212 2.07746 24.3594 4.25 25.0551V54.6082C4.25 57.5805 6.66828 59.9988 9.64062 59.9988H26.75H34.25H51.3594C54.3317 59.9988 56.75 57.5805 56.75 54.6082V25.0551C58.9225 24.3593 60.5 22.321 60.5 19.9207V15.7019C60.5 12.7296 58.0817 10.3113 55.1094 10.3113ZM32.375 21.5613H28.625V14.0613H32.375V21.5613ZM32.8161 8.72413C33.3952 5.39307 34.0621 4.6467 34.1363 4.57252C34.6846 4.0242 35.4049 3.7501 36.1251 3.7501C36.8454 3.7501 37.5656 4.0242 38.1139 4.57252C39.2104 5.66917 39.2104 7.45334 38.1139 8.54999C38.0402 8.6237 37.2983 9.28686 33.9924 9.86495C33.5112 9.94909 33.0417 10.0195 32.6084 10.0778C32.6654 9.65448 32.7341 9.19569 32.8161 8.72413ZM22.8862 4.57252C23.4345 4.0242 24.1548 3.7501 24.875 3.7501C25.5952 3.7501 26.3155 4.0242 26.8638 4.57252C26.9375 4.64624 27.6007 5.38815 28.1788 8.69389C28.2629 9.17506 28.3333 9.64475 28.3916 10.078C27.9683 10.0209 27.5094 9.95225 27.0379 9.87022C23.7069 9.29108 22.9605 8.62417 22.8863 8.54999C21.7897 7.45346 21.7897 5.66917 22.8862 4.57252ZM4.25 15.7019C4.25 14.7972 4.98594 14.0613 5.89062 14.0613H24.875V21.5613H6.125H5.89062C4.98594 21.5613 4.25 20.8254 4.25 19.9207V15.7019ZM8 54.6082V25.3113H24.875V56.2488H9.64062C8.73594 56.2488 8 55.5129 8 54.6082ZM28.625 56.2488V25.3113H32.375V56.2488H28.625ZM53 54.6082C53 55.5129 52.2641 56.2488 51.3594 56.2488H36.125V25.3113H53V54.6082ZM56.75 19.9207C56.75 20.8254 56.0141 21.5613 55.1094 21.5613H54.875H36.125V14.0613H55.1094C56.0141 14.0613 56.75 14.7972 56.75 15.7019V19.9207Z" fill="#FF9933"/>
</svg>
