<svg width="20" height="20" viewBox="0 0 20 20" fill="none" xmlns="http://www.w3.org/2000/svg">
<path d="M10.0003 1.66663C5.39783 1.66663 1.66699 5.39746 1.66699 9.99996C1.66699 14.6025 5.39783 18.3333 10.0003 18.3333C14.6028 18.3333 18.3337 14.6025 18.3337 9.99996C18.3337 5.39746 14.6028 1.66663 10.0003 1.66663ZM10.8337 15H9.16699V13.3333H10.8337V15ZM10.8337 11.55V12.5H9.16699V10.8333C9.16699 10.6123 9.25479 10.4003 9.41107 10.244C9.56735 10.0878 9.77931 9.99996 10.0003 9.99996C10.9195 9.99996 11.667 9.25246 11.667 8.33329C11.667 7.41413 10.9195 6.66663 10.0003 6.66663C9.08116 6.66663 8.33366 7.41413 8.33366 8.33329H6.66699C6.66699 6.49163 8.15866 4.99996 10.0003 4.99996C11.842 4.99996 13.3337 6.49163 13.3337 8.33329C13.3323 9.07068 13.086 9.78672 12.6335 10.3689C12.181 10.9512 11.5479 11.3666 10.8337 11.55Z" fill="#333333"/>
</svg>
