<svg width="61" height="60" viewBox="0 0 61 60" fill="none" xmlns="http://www.w3.org/2000/svg">
<path d="M54.5628 27.1089C51.2891 27.1089 48.6258 29.7724 48.6258 33.0461C48.6258 35.7081 50.3869 37.9664 52.8051 38.7175V52.6041C52.8051 54.7425 51.0654 56.4822 48.9271 56.4822C46.7887 56.4822 45.049 54.7425 45.049 52.6041V46.7645C45.049 42.6877 41.7322 39.3711 37.6554 39.3711C33.5786 39.3711 30.2619 42.6877 30.2619 46.7645V52.6041C30.2619 54.7425 28.5223 56.4822 26.3838 56.4822C24.2454 56.4822 22.5058 54.7425 22.5058 52.6041V40.2443C28.2222 39.5739 33.1024 35.6702 34.9579 30.1083L40.612 13.1594C41.3659 10.8996 40.9994 8.4949 39.6068 6.56213C38.214 4.62936 36.0491 3.521 33.6668 3.521H29.4511V0.00128174H25.9357V10.556H29.4511V7.03639H33.6667C34.905 7.03639 36.0307 7.6126 36.7546 8.61736C37.4787 9.62201 37.6692 10.8722 37.2772 12.0468L31.6231 28.9958C30.0595 33.683 25.6892 36.8321 20.7482 36.8321C15.8072 36.8321 11.4368 33.6829 9.87321 28.9958L4.21892 12.047C3.82705 10.8722 4.01748 9.62212 4.74146 8.61736C5.46556 7.6126 6.59103 7.03639 7.82946 7.03639H12.0454V10.556H15.5608V0.00128174H12.0454V3.52088H7.82946C5.44716 3.52088 3.28201 4.62936 1.88936 6.56213C0.496703 8.4949 0.130258 10.8995 0.884124 13.1594L6.53829 30.1083C8.39372 35.6702 13.274 39.574 18.9904 40.2443V52.6041C18.9904 56.6809 22.307 59.9975 26.3838 59.9975C30.4607 59.9975 33.7773 56.6809 33.7773 52.6041V46.7645C33.7773 44.6261 35.5171 42.8864 37.6554 42.8864C39.7938 42.8864 41.5336 44.6261 41.5336 46.7645V52.6041C41.5336 56.6809 44.8502 59.9975 48.9271 59.9975C53.0039 59.9975 56.3205 56.6809 56.3205 52.6041V38.7175C58.7387 37.9664 60.4999 35.7082 60.4999 33.0461C60.5 29.7722 57.8366 27.1089 54.5628 27.1089ZM54.5628 35.4678C53.2275 35.4678 52.1411 34.3815 52.1411 33.046C52.1411 31.7105 53.2275 30.6242 54.5628 30.6242C55.8981 30.6242 56.9846 31.7105 56.9846 33.046C56.9846 34.3815 55.8981 35.4678 54.5628 35.4678Z" fill="#FF9933"/>
</svg>
