<svg width="23" height="30" viewBox="0 0 23 30" fill="none" xmlns="http://www.w3.org/2000/svg">
<path d="M6.57639 0.718778C7.36404 0.481299 8.20927 0.520752 8.97137 0.83057C9.73347 1.14039 10.3665 1.70188 10.765 2.42158L10.9 2.68978L12.0898 5.33758C12.4514 6.14125 12.5688 7.0335 12.4274 7.90336C12.2859 8.77322 11.8918 9.58231 11.2942 10.23L11.0566 10.4676L9.17739 12.219C8.83899 12.5394 9.09279 13.7796 10.3186 15.9C11.4184 17.808 12.3166 18.699 12.7558 18.7476H12.8332L12.9286 18.7296L16.6186 17.601C17.1145 17.4489 17.6437 17.4429 18.143 17.5836C18.6422 17.7244 19.0904 18.006 19.4338 18.3948L19.5994 18.6018L22.0402 21.9858C22.5191 22.6489 22.758 23.4553 22.7174 24.2723C22.6769 25.0892 22.3593 25.868 21.817 26.4804L21.5974 26.7072L20.62 27.6324C19.7439 28.462 18.648 29.0227 17.4626 29.2476C16.2772 29.4726 15.0521 29.3524 13.933 28.9014C10.45 27.4974 7.28559 24.2898 4.41099 19.311C1.53099 14.3196 0.333994 9.96898 0.868594 6.24298C1.03052 5.11645 1.49459 4.05483 2.2115 3.17091C2.9284 2.28698 3.87136 1.61376 4.94019 1.22278L5.28759 1.10758L6.57639 0.718778Z" fill="white"/>
</svg>
