<?xml version="1.0" encoding="utf-8"?>
<!-- Generator: Adobe Illustrator 23.1.1, SVG Export Plug-In . SVG Version: 6.00 Build 0)  -->
<svg version="1.1" id="Слой_1" xmlns="http://www.w3.org/2000/svg" xmlns:xlink="http://www.w3.org/1999/xlink" x="0px" y="0px"
	 viewBox="0 0 23 30" style="enable-background:new 0 0 23 30;" xml:space="preserve">
<style type="text/css">
	.st0{fill:#FFFFFF;}
</style>
<path class="st0" d="M6.6,0.7L5.3,1.1c-1.1,0.3-2.2,1-3,1.9C1.5,3.9,1,5.1,0.9,6.2C0.3,10,1.5,14.3,4.4,19.3c2.9,5,6,8.2,9.5,9.6
	c1.1,0.5,2.3,0.6,3.5,0.3c1.2-0.2,2.3-0.8,3.2-1.6l1-0.9c0.6-0.6,1-1.4,1.1-2.3c0.1-0.9-0.2-1.7-0.7-2.4l-2.4-3.4
	c-0.3-0.5-0.8-0.8-1.3-1c-0.5-0.2-1.1-0.2-1.7,0l-3.7,1.1l-0.1,0c-0.4,0.1-1.3-0.8-2.5-2.8c-1.2-2.1-1.5-3.4-1.1-3.7l1.9-1.8
	c0.7-0.6,1.2-1.5,1.3-2.4s0.1-1.9-0.3-2.7l-1.2-2.6c-0.4-0.8-1-1.4-1.8-1.8C8.3,0.5,7.4,0.5,6.6,0.7L6.6,0.7z"/>
<path class="st0" d="M9.3,3.4l1.2,2.6c0.2,0.5,0.3,1.1,0.2,1.6c-0.1,0.6-0.4,1.1-0.8,1.4l-1.9,1.8C6.7,12,7.1,14,8.8,16.8
	c1.5,2.6,2.9,3.9,4.4,3.7l0.2,0l3.8-1.1c0.2-0.1,0.4-0.1,0.6,0c0.2,0.1,0.3,0.2,0.4,0.3l2.4,3.4c0.3,0.4,0.4,0.8,0.3,1.2
	c0,0.4-0.2,0.8-0.6,1.1l-1,0.9c-0.6,0.6-1.4,1-2.3,1.2c-0.8,0.2-1.7,0.1-2.5-0.2C11.6,26,8.7,23.1,6,18.4C3.3,13.7,2.2,9.8,2.7,6.5
	c0.1-0.8,0.5-1.6,1-2.3C4.3,3.6,5,3.1,5.8,2.8l1.3-0.4C7.5,2.3,8,2.3,8.4,2.5C8.8,2.7,9.1,3,9.3,3.4z"/>
</svg>
