<svg width="23" height="30" viewBox="0 0 23 30" fill="none" xmlns="http://www.w3.org/2000/svg">
<path d="M6.57699 0.718892L5.28819 1.10769C4.1387 1.45395 3.11207 2.12144 2.32918 3.03157C1.5463 3.94169 1.03975 5.05655 0.869192 6.24489C0.334592 9.96729 1.52979 14.3197 4.41159 19.3111C7.28619 24.2899 10.4506 27.4975 13.9336 28.9015C15.0527 29.3525 16.2778 29.4727 17.4632 29.2477C18.6486 29.0228 19.7445 28.4621 20.6206 27.6325L21.598 26.7073C22.2312 26.1075 22.6252 25.2982 22.7066 24.4298C22.7881 23.5614 22.5515 22.693 22.0408 21.9859L19.6 18.6019C19.27 18.145 18.8053 17.8029 18.2711 17.6234C17.7369 17.4439 17.1599 17.4361 16.621 17.6011L12.9292 18.7297L12.8338 18.7477C12.427 18.8071 11.4892 17.9269 10.3192 15.9001C9.09519 13.7797 8.83959 12.5395 9.17799 12.2191L11.0572 10.4677C11.7434 9.82751 12.2121 8.98857 12.3974 8.06856C12.5827 7.14855 12.4753 6.19361 12.0904 5.33769L10.9024 2.68989C10.544 1.89232 9.90758 1.25245 9.11196 0.889749C8.31634 0.527049 7.41591 0.466317 6.57879 0.718892H6.57699ZM9.25899 3.42789L10.4488 6.07569C10.6802 6.58911 10.7449 7.16211 10.6338 7.71419C10.5227 8.26627 10.2415 8.76968 9.82959 9.15369L7.94679 10.9069C6.74079 12.0463 7.14039 13.9957 8.75859 16.8001C10.2832 19.4389 11.6728 20.7421 13.165 20.5153L13.3882 20.4685L17.1466 19.3219C17.3262 19.2667 17.5187 19.2691 17.6969 19.3289C17.875 19.3886 18.0301 19.5026 18.1402 19.6549L20.581 23.0389C20.8366 23.3925 20.955 23.8269 20.9143 24.2613C20.8736 24.6957 20.6764 25.1005 20.3596 25.4005L19.3822 26.3257C18.7564 26.9179 17.9738 27.3181 17.1272 27.4786C16.2807 27.6391 15.4059 27.5532 14.6068 27.2311C11.5504 25.9999 8.66139 23.0713 5.97039 18.4111C3.27399 13.7401 2.18319 9.76749 2.65119 6.50049C2.77295 5.65145 3.13481 4.85488 3.69417 4.20464C4.25353 3.55439 4.98707 3.07755 5.80839 2.83029L7.09899 2.44149C7.51742 2.31576 7.96729 2.34651 8.36472 2.528C8.76214 2.70949 9.07999 3.02934 9.25899 3.42789Z" fill="#333333"/>
</svg>
