<svg width="61" height="60" viewBox="0 0 61 60" fill="none" xmlns="http://www.w3.org/2000/svg">
<path d="M58.7422 14.2969H49.7676L49.7188 10.535C49.7124 4.72488 44.9836 0 39.1719 0C33.3563 0 28.625 4.73133 28.625 10.5469C28.625 10.5545 28.625 10.5621 28.6251 10.5697L28.6735 14.2969H19.7188C18.748 14.2969 17.9609 15.0839 17.9609 16.0547V28.3594H2.25781C1.28703 28.3594 0.5 29.1464 0.5 30.1172V54.7266C0.5 57.6343 2.86566 60 5.77344 60H34.1328H37.6484H55.2266C58.1343 60 60.5 57.6343 60.5 54.7266V16.0547C60.5 15.0839 59.713 14.2969 58.7422 14.2969ZM39.1719 3.51562C43.0489 3.51562 46.2031 6.66984 46.2031 10.5469C46.2031 10.5545 46.2031 10.5621 46.2032 10.5697L46.2518 14.2969H32.1895L32.1406 10.5362C32.1464 6.66398 35.2984 3.51562 39.1719 3.51562ZM39.4062 54.7266C39.4062 55.6958 38.6177 56.4844 37.6484 56.4844H34.1328H5.77344C4.80418 56.4844 4.01562 55.6958 4.01562 54.7266V31.875H39.4062V54.7266ZM56.9844 54.7266C56.9844 55.6958 56.1958 56.4844 55.2266 56.4844H42.6195C42.8147 55.9342 42.9219 55.3427 42.9219 54.7266V30.1172C42.9219 29.1464 42.1348 28.3594 41.1641 28.3594H21.4766V17.8125H28.7192L28.7423 19.5932C28.7547 20.5561 29.5393 21.3281 30.4995 21.3281C30.5073 21.3281 30.515 21.3281 30.5229 21.328C31.4936 21.3154 32.2704 20.5182 32.2577 19.5475L32.2351 17.8125H46.2973L46.3204 19.5932C46.3329 20.5561 47.1174 21.3281 48.0777 21.3281C48.0854 21.3281 48.0931 21.3281 48.101 21.328C49.0718 21.3154 49.8485 20.5182 49.8358 19.5475L49.8132 17.8125H56.9844V54.7266Z" fill="#FF9933"/>
</svg>
