<svg width="23" height="30" viewBox="0 0 23 30" fill="none" xmlns="http://www.w3.org/2000/svg">
<path d="M6.5765 0.7188L5.2877 1.1076C4.13821 1.45386 3.11158 2.12135 2.32869 3.03147C1.54581 3.9416 1.03926 5.05646 0.868704 6.2448C0.334104 9.9672 1.5293 14.3196 4.4111 19.311C7.2857 24.2898 10.4501 27.4974 13.9331 28.9014C15.0522 29.3524 16.2773 29.4726 17.4627 29.2477C18.6481 29.0227 19.744 28.4621 20.6201 27.6324L21.5975 26.7072C22.2307 26.1074 22.6247 25.2981 22.7061 24.4297C22.7876 23.5613 22.551 22.6929 22.0403 21.9858L19.5995 18.6018C19.2695 18.1449 18.8048 17.8028 18.2706 17.6233C17.7364 17.4439 17.1594 17.436 16.6205 17.601L12.9287 18.7296L12.8333 18.7476C12.4265 18.807 11.4887 17.9268 10.3187 15.9C9.0947 13.7796 8.8391 12.5394 9.1775 12.219L11.0567 10.4676C11.7429 9.82742 12.2116 8.98848 12.3969 8.06847C12.5822 7.14846 12.4748 6.19352 12.0899 5.3376L10.9019 2.6898C10.5435 1.89223 9.90709 1.25236 9.11147 0.889657C8.31585 0.526958 7.41542 0.466226 6.5783 0.7188H6.5765ZM9.2585 3.4278L10.4483 6.0756C10.6797 6.58902 10.7444 7.16202 10.6333 7.7141C10.5222 8.26618 10.241 8.76959 9.8291 9.1536L7.9463 10.9068C6.7403 12.0462 7.1399 13.9956 8.7581 16.8C10.2827 19.4388 11.6723 20.742 13.1645 20.5152L13.3877 20.4684L17.1461 19.3218C17.3258 19.2666 17.5182 19.2691 17.6964 19.3288C17.8746 19.3885 18.0296 19.5025 18.1397 19.6548L20.5805 23.0388C20.8361 23.3924 20.9545 23.8268 20.9138 24.2612C20.8731 24.6956 20.676 25.1004 20.3591 25.4004L19.3817 26.3256C18.7559 26.9178 17.9733 27.318 17.1268 27.4785C16.2802 27.639 15.4054 27.5531 14.6063 27.231C11.5499 25.9998 8.6609 23.0712 5.9699 18.411C3.2735 13.74 2.1827 9.7674 2.6507 6.5004C2.77246 5.65135 3.13433 4.85479 3.69368 4.20455C4.25304 3.5543 4.98659 3.07746 5.8079 2.8302L7.0985 2.4414C7.51693 2.31567 7.9668 2.34641 8.36423 2.52791C8.76165 2.7094 9.0795 3.02924 9.2585 3.4278Z" fill="white"/>
</svg>
